<?xml version="1.0" encoding="UTF-8" standalone="no"?>
<svg
   xmlns:dc="http://purl.org/dc/elements/1.1/"
   xmlns:cc="http://creativecommons.org/ns#"
   xmlns:rdf="http://www.w3.org/1999/02/22-rdf-syntax-ns#"
   xmlns:svg="http://www.w3.org/2000/svg"
   xmlns="http://www.w3.org/2000/svg"
   xmlns:sodipodi="http://sodipodi.sourceforge.net/DTD/sodipodi-0.dtd"
   xmlns:inkscape="http://www.inkscape.org/namespaces/inkscape"
   width="111.45774mm"
   height="127mm"
   version="1.2"
   id="svg158"
   sodipodi:docname="Disciples of SCIENCE Icon.svg"
   inkscape:version="0.92.2 5c3e80d, 2017-08-06"
   inkscape:export-filename="/Users/vyren/Downloads/Disciples of SCIENCE Icon.png"
   inkscape:export-xdpi="455.80005"
   inkscape:export-ydpi="455.80005">
  <metadata
     id="metadata162">
    <rdf:RDF>
      <cc:Work
         rdf:about="">
        <dc:format>image/svg+xml</dc:format>
        <dc:type
           rdf:resource="http://purl.org/dc/dcmitype/StillImage" />
        <dc:title></dc:title>
      </cc:Work>
    </rdf:RDF>
  </metadata>
  <sodipodi:namedview
     pagecolor="#ffffff"
     bordercolor="#666666"
     borderopacity="1"
     objecttolerance="10"
     gridtolerance="10"
     guidetolerance="10"
     inkscape:pageopacity="0"
     inkscape:pageshadow="2"
     inkscape:window-width="1920"
     inkscape:window-height="1156"
     id="namedview160"
     showgrid="false"
     inkscape:zoom="1.9645833"
     inkscape:cx="210.6288"
     inkscape:cy="240"
     inkscape:window-x="0"
     inkscape:window-y="0"
     inkscape:window-maximized="1"
     inkscape:current-layer="svg158"
     fit-margin-top="0"
     fit-margin-left="0"
     fit-margin-right="0"
     fit-margin-bottom="0" />
  <desc
     id="desc2">Created by HiQPdf</desc>
  <defs
     id="defs4" />
  <g
     style="fill:#000000;fill-opacity:1;fill-rule:evenodd;stroke:#000000;stroke-width:1;stroke-linecap:square;stroke-linejoin:miter;stroke-miterlimit:2;stroke-opacity:1"
     id="g6"
     stroke-miterlimit="2"
     transform="translate(-54.0142,-15)" />
  <g
     style="fill:#000000;fill-opacity:1;fill-rule:evenodd;stroke:#000000;stroke-width:1;stroke-linecap:square;stroke-linejoin:miter;stroke-miterlimit:2;stroke-opacity:1"
     id="g8"
     stroke-miterlimit="2"
     transform="translate(-54.0142,-15)" />
  <g
     style="fill:#000000;fill-opacity:1;fill-rule:evenodd;stroke:#000000;stroke-width:1;stroke-linecap:square;stroke-linejoin:miter;stroke-miterlimit:2;stroke-opacity:1"
     id="g10"
     stroke-miterlimit="2"
     transform="translate(-54.0142,-15)" />
  <g
     style="fill:#000000;fill-opacity:1;fill-rule:evenodd;stroke:#000000;stroke-width:1;stroke-linecap:square;stroke-linejoin:miter;stroke-miterlimit:2;stroke-opacity:1"
     id="g12"
     stroke-miterlimit="2"
     transform="translate(-54.0142,-15)" />
  <g
     style="fill:#000000;fill-opacity:1;fill-rule:evenodd;stroke:#000000;stroke-width:1;stroke-linecap:square;stroke-linejoin:miter;stroke-miterlimit:2;stroke-opacity:1"
     id="g14"
     transform="translate(-46.0142,-7)"
     stroke-miterlimit="2" />
  <g
     style="fill:#000000;fill-opacity:1;fill-rule:evenodd;stroke:#000000;stroke-width:1;stroke-linecap:square;stroke-linejoin:miter;stroke-miterlimit:2;stroke-opacity:1"
     id="g16"
     transform="translate(-46.0142,-7)"
     stroke-miterlimit="2" />
  <g
     style="fill:#3938ea;fill-opacity:1;fill-rule:evenodd;stroke:none;stroke-width:1;stroke-linecap:square;stroke-linejoin:bevel"
     id="g20"
     transform="scale(1.6)">
    <path
       style="vector-effect:none;fill-rule:nonzero"
       inkscape:connector-curvature="0"
       id="path18"
       d="m 248.692,148.211 c -8.338,6.133 -16.383,8.09 -16.383,8.09 25.311,-23.596 30.977,-78.618 30.977,-78.618 -10.423,25.553 -27.927,34.753 -27.927,34.753 C 262.048,86.265 252.863,0 252.863,0 c 2.083,76.661 -62.543,99.148 -62.543,99.148 -47.948,15.333 -58.677,71.55 -58.677,71.55 0,0 -10.727,-56.218 -58.677,-71.55 0,0 -64.627,-22.488 -62.542,-99.148 0,0 -9.186,86.265 17.503,112.436 0,0 -17.503,-9.2 -27.927,-34.753 0,0 5.666,55.022 30.977,78.618 0,0 -8.044,-1.957 -16.384,-8.09 0,0 9.875,29.642 21.354,39.863 0,0 -13.217,38.842 -7.124,57.24 0,0 8.354,-6.244 13.729,-10.349 -8.653,9.349 -3.232,25.171 -3.232,25.171 0.234,-7.667 6.02,-11.755 6.02,-11.755 C 47.948,282.624 31.79,300 31.79,300 c 42.738,-5.111 27.102,-88.926 27.102,-88.926 0.521,-11.244 47.949,-4.089 47.949,-4.089 10.428,9.71 24.802,16.864 24.802,16.864 0,0 14.375,-7.154 24.797,-16.864 0,0 47.432,-7.155 47.953,4.087 0,0 -15.636,83.816 27.099,88.927 0,0 -16.156,-17.375 -13.55,-51.618 0,0 5.788,4.088 6.021,11.753 0,0 5.42,-15.82 -3.231,-25.168 5.377,4.104 13.729,10.348 13.729,10.348 6.093,-18.399 -7.121,-57.24 -7.121,-57.24 11.478,-10.221 21.352,-39.863 21.352,-39.863" />
  </g>
  <g
     style="fill:#000000;fill-opacity:1;fill-rule:evenodd;stroke:#000000;stroke-width:1;stroke-linecap:square;stroke-linejoin:miter;stroke-miterlimit:2;stroke-opacity:1"
     id="g22"
     transform="translate(-46.0142,-7)"
     stroke-miterlimit="2" />
  <g
     style="fill:#959595;fill-opacity:1;fill-rule:evenodd;stroke:none;stroke-width:1;stroke-linecap:square;stroke-linejoin:bevel"
     id="g26"
     transform="translate(151.9858,59)">
    <path
       style="vector-effect:none;fill-rule:nonzero"
       inkscape:connector-curvature="0"
       id="path24"
       d="M 116.418,266.418 C 116.418,284.889 101.306,300 82.836,300 H 33.582 C 15.112,300 0,284.889 0,266.418 V 33.582 C 0,15.112 15.112,0 33.582,0 h 49.254 c 18.47,0 33.582,15.112 33.582,33.582 v 232.836" />
  </g>
  <g
     style="fill:#000000;fill-opacity:1;fill-rule:evenodd;stroke:#000000;stroke-width:1;stroke-linecap:square;stroke-linejoin:miter;stroke-miterlimit:2;stroke-opacity:1"
     id="g28"
     transform="translate(-46.0142,-7)"
     stroke-miterlimit="2" />
  <g
     style="fill:#cdcdcd;fill-opacity:1;fill-rule:evenodd;stroke:none;stroke-width:1;stroke-linecap:square;stroke-linejoin:bevel"
     id="g32"
     transform="matrix(0.75,0,0,0.95,166.5378,60.5)">
    <path
       style="vector-effect:none;fill-rule:nonzero"
       inkscape:connector-curvature="0"
       id="path30"
       d="M 116.418,266.418 C 116.418,284.889 101.306,300 82.836,300 H 33.582 C 15.112,300 0,284.889 0,266.418 V 33.582 C 0,15.112 15.112,0 33.582,0 h 49.254 c 18.47,0 33.582,15.112 33.582,33.582 v 232.836" />
  </g>
  <g
     style="fill:#88359c;fill-opacity:1;fill-rule:evenodd;stroke:none;stroke-width:1;stroke-linecap:square;stroke-linejoin:bevel"
     id="g44"
     transform="matrix(1.3153168,0,0,0.15,166.51622,163.5)">
    <path
       style="vector-effect:none;fill-rule:nonzero"
       inkscape:connector-curvature="0"
       id="path42"
       d="M 0,0 H 66.437 V 300 H 0 V 148.125 c 0,0 0.04,-0.381 0,-0.5 -0.063,-0.188 0,-0.563 0,-0.563 V 0" />
  </g>
  <g
     style="fill:#000000;fill-opacity:1;fill-rule:evenodd;stroke:#000000;stroke-width:1;stroke-linecap:square;stroke-linejoin:miter;stroke-miterlimit:2;stroke-opacity:1"
     id="g34"
     transform="translate(-46.0142,-7)"
     stroke-miterlimit="2" />
  <g
     style="fill:#88359c;fill-opacity:1;fill-rule:evenodd;stroke:none;stroke-width:1;stroke-linecap:square;stroke-linejoin:bevel"
     id="g38"
     transform="matrix(0.75,0,0,0.55,166.5378,180.5)">
    <path
       style="vector-effect:none;fill-rule:nonzero"
       inkscape:connector-curvature="0"
       id="path36"
       d="M 116.418,266.418 C 116.418,284.889 101.306,300 82.836,300 H 33.582 C 15.112,300 0,284.889 0,266.418 V 33.582 C 0,15.112 15.112,0 33.582,0 h 49.254 c 18.47,0 33.582,15.112 33.582,33.582 v 232.836" />
  </g>
  <g
     style="fill:#000000;fill-opacity:1;fill-rule:evenodd;stroke:#000000;stroke-width:1;stroke-linecap:square;stroke-linejoin:miter;stroke-miterlimit:2;stroke-opacity:1"
     id="g40"
     transform="translate(-46.0142,-7)"
     stroke-miterlimit="2" />
  <g
     style="fill:#000000;fill-opacity:1;fill-rule:evenodd;stroke:#000000;stroke-width:1;stroke-linecap:square;stroke-linejoin:miter;stroke-miterlimit:2;stroke-opacity:1"
     id="g46"
     transform="translate(-46.0142,-7)"
     stroke-miterlimit="2" />
  <g
     style="fill:#dfdfdf;fill-opacity:1;fill-rule:evenodd;stroke:none;stroke-width:1;stroke-linecap:square;stroke-linejoin:bevel"
     id="g50"
     transform="matrix(0.35,0,0,0.15,157.4858,54.4936)">
    <path
       style="vector-effect:none;fill-rule:nonzero"
       inkscape:connector-curvature="0"
       id="path48"
       d="M 300,149.988 C 300,232.831 232.835,299.985 149.997,299.985 67.154,299.985 0,232.831 0,149.988 0,67.15 67.154,0 149.997,0 232.835,0 300,67.15 300,149.988" />
  </g>
  <g
     style="fill:#000000;fill-opacity:1;fill-rule:evenodd;stroke:#000000;stroke-width:1;stroke-linecap:square;stroke-linejoin:miter;stroke-miterlimit:2;stroke-opacity:1"
     id="g52"
     transform="translate(-46.0142,-7)"
     stroke-miterlimit="2" />
  <g
     style="fill:#b17cbf;fill-opacity:1;fill-rule:evenodd;stroke:none;stroke-width:1;stroke-linecap:square;stroke-linejoin:bevel"
     id="g56"
     transform="matrix(0.1,0,0,0.1,188.9858,67.9933)">
    <path
       style="vector-effect:none;fill-rule:nonzero"
       inkscape:connector-curvature="0"
       id="path54"
       d="M 300,149.988 C 300,232.831 232.835,299.985 149.997,299.985 67.154,299.985 0,232.831 0,149.988 0,67.15 67.154,0 149.997,0 232.835,0 300,67.15 300,149.988" />
  </g>
  <g
     style="fill:#000000;fill-opacity:1;fill-rule:evenodd;stroke:#000000;stroke-width:1;stroke-linecap:square;stroke-linejoin:miter;stroke-miterlimit:2;stroke-opacity:1"
     id="g58"
     transform="translate(-46.0142,-7)"
     stroke-miterlimit="2" />
  <g
     style="fill:#b17cbf;fill-opacity:1;fill-rule:evenodd;stroke:none;stroke-width:1;stroke-linecap:square;stroke-linejoin:bevel"
     id="g62"
     transform="matrix(0.1,0,0,0.1,162.9858,7.9933)">
    <path
       style="vector-effect:none;fill-rule:nonzero"
       inkscape:connector-curvature="0"
       id="path60"
       d="M 300,149.988 C 300,232.831 232.835,299.985 149.997,299.985 67.154,299.985 0,232.831 0,149.988 0,67.15 67.154,0 149.997,0 232.835,0 300,67.15 300,149.988" />
  </g>
  <g
     style="fill:#000000;fill-opacity:1;fill-rule:evenodd;stroke:#000000;stroke-width:1;stroke-linecap:square;stroke-linejoin:miter;stroke-miterlimit:2;stroke-opacity:1"
     id="g64"
     transform="translate(-46.0142,-7)"
     stroke-miterlimit="2" />
  <g
     style="fill:#b17cbf;fill-opacity:1;fill-rule:evenodd;stroke:none;stroke-width:1;stroke-linecap:square;stroke-linejoin:bevel"
     id="g68"
     transform="matrix(0.1,0,0,0.1,216.9858,24.9933)">
    <path
       style="vector-effect:none;fill-rule:nonzero"
       inkscape:connector-curvature="0"
       id="path66"
       d="M 300,149.988 C 300,232.831 232.835,299.985 149.997,299.985 67.154,299.985 0,232.831 0,149.988 0,67.15 67.154,0 149.997,0 232.835,0 300,67.15 300,149.988" />
  </g>
  <g
     style="fill:#000000;fill-opacity:1;fill-rule:evenodd;stroke:#000000;stroke-width:1;stroke-linecap:square;stroke-linejoin:miter;stroke-miterlimit:2;stroke-opacity:1"
     id="g70"
     transform="translate(-46.0142,-7)"
     stroke-miterlimit="2" />
  <g
     style="fill:#88359c;fill-opacity:1;fill-rule:evenodd;stroke:none;stroke-width:1;stroke-linecap:square;stroke-linejoin:bevel"
     id="g74"
     transform="matrix(0.0908,0.1782,-0.1782,0.0908,194.8718,144.279)">
    <path
       style="vector-effect:none;fill-rule:nonzero"
       inkscape:connector-curvature="0"
       id="path72"
       d="m 299.998,149.209 c 0,-0.259 -0.012,-0.521 -0.045,-0.787 -0.199,-3.129 -1.494,-6.207 -3.898,-8.6 L 159.527,3.923 c -5.26,-5.231 -13.799,-5.231 -19.061,0 L 3.943,139.822 c -2.417,2.396 -3.701,5.475 -3.91,8.61 C 0.012,148.694 0,148.955 0,149.207 c 0,0.017 0,0.026 0,0.045 -0.011,3.449 1.307,6.902 3.944,9.534 h 0.022 c 2.47,2.472 5.892,4.015 9.679,4.015 h 116.845 39.029 116.834 c 3.775,0 7.213,-1.543 9.683,-4.015 h 0.021 c 2.637,-2.632 3.955,-6.079 3.943,-9.53 -0.002,-0.017 -0.002,-0.028 -0.002,-0.047" />
  </g>
  <g
     style="fill:#000000;fill-opacity:1;fill-rule:evenodd;stroke:#000000;stroke-width:1;stroke-linecap:square;stroke-linejoin:miter;stroke-miterlimit:2;stroke-opacity:1"
     id="g76"
     transform="translate(-46.0142,-7)"
     stroke-miterlimit="2" />
  <g
     style="fill:#88359c;fill-opacity:1;fill-rule:evenodd;stroke:none;stroke-width:1;stroke-linecap:square;stroke-linejoin:bevel"
     id="g80"
     transform="matrix(0.014,0.1995,-0.1995,0.014,210.1338,148.338)">
    <path
       style="vector-effect:none;fill-rule:nonzero"
       inkscape:connector-curvature="0"
       id="path78"
       d="m 299.998,149.209 c 0,-0.259 -0.012,-0.521 -0.045,-0.787 -0.199,-3.129 -1.494,-6.207 -3.898,-8.6 L 159.527,3.923 c -5.26,-5.231 -13.799,-5.231 -19.061,0 L 3.943,139.822 c -2.417,2.396 -3.701,5.475 -3.91,8.61 C 0.012,148.694 0,148.955 0,149.207 c 0,0.017 0,0.026 0,0.045 -0.011,3.449 1.307,6.902 3.944,9.534 h 0.022 c 2.47,2.472 5.892,4.015 9.679,4.015 h 116.845 39.029 116.834 c 3.775,0 7.213,-1.543 9.683,-4.015 h 0.021 c 2.637,-2.632 3.955,-6.079 3.943,-9.53 -0.002,-0.017 -0.002,-0.028 -0.002,-0.047" />
  </g>
  <g
     style="fill:#000000;fill-opacity:1;fill-rule:evenodd;stroke:#000000;stroke-width:1;stroke-linecap:square;stroke-linejoin:miter;stroke-miterlimit:2;stroke-opacity:1"
     id="g82"
     transform="translate(-46.0142,-7)"
     stroke-miterlimit="2" />
  <g
     style="fill:#88359c;fill-opacity:1;fill-rule:evenodd;stroke:none;stroke-width:1;stroke-linecap:square;stroke-linejoin:bevel"
     id="g86"
     transform="matrix(0.2,0,0,0.2,171.9858,149.12)">
    <path
       style="vector-effect:none;fill-rule:nonzero"
       inkscape:connector-curvature="0"
       id="path84"
       d="m 299.998,149.209 c 0,-0.259 -0.012,-0.521 -0.045,-0.787 -0.199,-3.129 -1.494,-6.207 -3.898,-8.6 L 159.527,3.923 c -5.26,-5.231 -13.799,-5.231 -19.061,0 L 3.943,139.822 c -2.417,2.396 -3.701,5.475 -3.91,8.61 C 0.012,148.694 0,148.955 0,149.207 c 0,0.017 0,0.026 0,0.045 -0.011,3.449 1.307,6.902 3.944,9.534 h 0.022 c 2.47,2.472 5.892,4.015 9.679,4.015 h 116.845 39.029 116.834 c 3.775,0 7.213,-1.543 9.683,-4.015 h 0.021 c 2.637,-2.632 3.955,-6.079 3.943,-9.53 -0.002,-0.017 -0.002,-0.028 -0.002,-0.047" />
  </g>
  <g
     style="fill:#000000;fill-opacity:1;fill-rule:evenodd;stroke:#000000;stroke-width:1;stroke-linecap:square;stroke-linejoin:miter;stroke-miterlimit:2;stroke-opacity:1"
     id="g88"
     transform="translate(-46.0142,-7)"
     stroke-miterlimit="2" />
  <g
     style="fill:#88359c;fill-opacity:1;fill-rule:evenodd;stroke:none;stroke-width:1;stroke-linecap:square;stroke-linejoin:bevel"
     id="g92"
     transform="matrix(-0.0717,0.1867,-0.1867,-0.0717,254.9358,157.227)">
    <path
       style="vector-effect:none;fill-rule:nonzero"
       inkscape:connector-curvature="0"
       id="path90"
       d="m 299.998,149.209 c 0,-0.259 -0.012,-0.521 -0.045,-0.787 -0.199,-3.129 -1.494,-6.207 -3.898,-8.6 L 159.527,3.923 c -5.26,-5.231 -13.799,-5.231 -19.061,0 L 3.943,139.822 c -2.417,2.396 -3.701,5.475 -3.91,8.61 C 0.012,148.694 0,148.955 0,149.207 c 0,0.017 0,0.026 0,0.045 -0.011,3.449 1.307,6.902 3.944,9.534 h 0.022 c 2.47,2.472 5.892,4.015 9.679,4.015 h 116.845 39.029 116.834 c 3.775,0 7.213,-1.543 9.683,-4.015 h 0.021 c 2.637,-2.632 3.955,-6.079 3.943,-9.53 -0.002,-0.017 -0.002,-0.028 -0.002,-0.047" />
  </g>
  <g
     style="fill:#000000;fill-opacity:1;fill-rule:evenodd;stroke:#000000;stroke-width:1;stroke-linecap:square;stroke-linejoin:miter;stroke-miterlimit:2;stroke-opacity:1"
     id="g94"
     transform="translate(-46.0142,-7)"
     stroke-miterlimit="2" />
  <g
     style="fill:#88359c;fill-opacity:1;fill-rule:evenodd;stroke:none;stroke-width:1;stroke-linecap:square;stroke-linejoin:bevel"
     id="g98"
     transform="matrix(0,-0.2,0.2,0,220.7058,207.401)">
    <path
       style="vector-effect:none;fill-rule:nonzero"
       inkscape:connector-curvature="0"
       id="path96"
       d="m 299.998,149.209 c 0,-0.259 -0.012,-0.521 -0.045,-0.787 -0.199,-3.129 -1.494,-6.207 -3.898,-8.6 L 159.527,3.923 c -5.26,-5.231 -13.799,-5.231 -19.061,0 L 3.943,139.822 c -2.417,2.396 -3.701,5.475 -3.91,8.61 C 0.012,148.694 0,148.955 0,149.207 c 0,0.017 0,0.026 0,0.045 -0.011,3.449 1.307,6.902 3.944,9.534 h 0.022 c 2.47,2.472 5.892,4.015 9.679,4.015 h 116.845 39.029 116.834 c 3.775,0 7.213,-1.543 9.683,-4.015 h 0.021 c 2.637,-2.632 3.955,-6.079 3.943,-9.53 -0.002,-0.017 -0.002,-0.028 -0.002,-0.047" />
  </g>
  <g
     style="fill:#000000;fill-opacity:1;fill-rule:evenodd;stroke:#000000;stroke-width:1;stroke-linecap:square;stroke-linejoin:miter;stroke-miterlimit:2;stroke-opacity:1"
     id="g100"
     transform="translate(-46.0142,-7)"
     stroke-miterlimit="2" />
  <g
     style="fill:#d47a9c;fill-opacity:1;fill-rule:evenodd;stroke:none;stroke-width:1;stroke-linecap:square;stroke-linejoin:bevel"
     id="g104"
     transform="matrix(0.05,0,0,0.05,209.4858,183.493)">
    <path
       style="vector-effect:none;fill-rule:nonzero"
       inkscape:connector-curvature="0"
       id="path102"
       d="M 300,149.988 C 300,232.831 232.835,299.985 149.997,299.985 67.154,299.985 0,232.831 0,149.988 0,67.15 67.154,0 149.997,0 232.835,0 300,67.15 300,149.988" />
  </g>
  <g
     style="fill:#000000;fill-opacity:1;fill-rule:evenodd;stroke:#000000;stroke-width:1;stroke-linecap:square;stroke-linejoin:miter;stroke-miterlimit:2;stroke-opacity:1"
     id="g106"
     transform="translate(-46.0142,-7)"
     stroke-miterlimit="2" />
  <g
     style="fill:#d47a9c;fill-opacity:1;fill-rule:evenodd;stroke:none;stroke-width:1;stroke-linecap:square;stroke-linejoin:bevel"
     id="g110"
     transform="matrix(0.05,0,0,0.05,202.4858,234.493)">
    <path
       style="vector-effect:none;fill-rule:nonzero"
       inkscape:connector-curvature="0"
       id="path108"
       d="M 300,149.988 C 300,232.831 232.835,299.985 149.997,299.985 67.154,299.985 0,232.831 0,149.988 0,67.15 67.154,0 149.997,0 232.835,0 300,67.15 300,149.988" />
  </g>
  <g
     style="fill:#000000;fill-opacity:1;fill-rule:evenodd;stroke:#000000;stroke-width:1;stroke-linecap:square;stroke-linejoin:miter;stroke-miterlimit:2;stroke-opacity:1"
     id="g112"
     transform="translate(-46.0142,-7)"
     stroke-miterlimit="2" />
  <g
     style="fill:#d47a9c;fill-opacity:1;fill-rule:evenodd;stroke:none;stroke-width:1;stroke-linecap:square;stroke-linejoin:bevel"
     id="g116"
     transform="matrix(0.05,0,0,0.05,193.4858,302.493)">
    <path
       style="vector-effect:none;fill-rule:nonzero"
       inkscape:connector-curvature="0"
       id="path114"
       d="M 300,149.988 C 300,232.831 232.835,299.985 149.997,299.985 67.154,299.985 0,232.831 0,149.988 0,67.15 67.154,0 149.997,0 232.835,0 300,67.15 300,149.988" />
  </g>
  <g
     style="fill:#000000;fill-opacity:1;fill-rule:evenodd;stroke:#000000;stroke-width:1;stroke-linecap:square;stroke-linejoin:miter;stroke-miterlimit:2;stroke-opacity:1"
     id="g118"
     transform="translate(-46.0142,-7)"
     stroke-miterlimit="2" />
  <g
     style="fill:#d47a9c;fill-opacity:1;fill-rule:evenodd;stroke:none;stroke-width:1;stroke-linecap:square;stroke-linejoin:bevel"
     id="g122"
     transform="matrix(0.1,0,0,0.1,211.9858,268.993)">
    <path
       style="vector-effect:none;fill-rule:nonzero"
       inkscape:connector-curvature="0"
       id="path120"
       d="M 300,149.988 C 300,232.831 232.835,299.985 149.997,299.985 67.154,299.985 0,232.831 0,149.988 0,67.15 67.154,0 149.997,0 232.835,0 300,67.15 300,149.988" />
  </g>
  <g
     style="fill:#000000;fill-opacity:1;fill-rule:evenodd;stroke:#000000;stroke-width:1;stroke-linecap:square;stroke-linejoin:miter;stroke-miterlimit:2;stroke-opacity:1"
     id="g124"
     transform="translate(-46.0142,-7)"
     stroke-miterlimit="2" />
  <g
     style="fill:#d47a9c;fill-opacity:1;fill-rule:evenodd;stroke:none;stroke-width:1;stroke-linecap:square;stroke-linejoin:bevel"
     id="g128"
     transform="matrix(0.1,0,0,0.1,174.9858,202.993)">
    <path
       style="vector-effect:none;fill-rule:nonzero"
       inkscape:connector-curvature="0"
       id="path126"
       d="M 300,149.988 C 300,232.831 232.835,299.985 149.997,299.985 67.154,299.985 0,232.831 0,149.988 0,67.15 67.154,0 149.997,0 232.835,0 300,67.15 300,149.988" />
  </g>
  <g
     style="fill:#000000;fill-opacity:1;fill-rule:evenodd;stroke:#000000;stroke-width:1;stroke-linecap:square;stroke-linejoin:miter;stroke-miterlimit:2;stroke-opacity:1"
     id="g130"
     transform="translate(-46.0142,-7)"
     stroke-miterlimit="2" />
  <g
     style="fill:#000000;fill-opacity:1;fill-rule:evenodd;stroke:#000000;stroke-width:1;stroke-linecap:square;stroke-linejoin:miter;stroke-miterlimit:2;stroke-opacity:1"
     id="g132"
     transform="translate(-46.0142,-7)"
     stroke-miterlimit="2" />
  <g
     style="fill:#000000;fill-opacity:1;fill-rule:evenodd;stroke:#000000;stroke-width:1;stroke-linecap:square;stroke-linejoin:miter;stroke-miterlimit:2;stroke-opacity:1"
     id="g134"
     stroke-miterlimit="2"
     transform="translate(-54.0142,-15)" />
  <g
     style="fill:#000000;fill-opacity:1;fill-rule:evenodd;stroke:#000000;stroke-width:1;stroke-linecap:square;stroke-linejoin:miter;stroke-miterlimit:2;stroke-opacity:1"
     id="g136"
     stroke-miterlimit="2"
     transform="translate(-54.0142,-15)" />
  <g
     style="fill:#000000;fill-opacity:1;fill-rule:evenodd;stroke:#000000;stroke-width:1;stroke-linecap:square;stroke-linejoin:miter;stroke-miterlimit:2;stroke-opacity:1"
     id="g138"
     stroke-miterlimit="2"
     transform="translate(-54.0142,-15)" />
  <g
     style="fill:#000000;fill-opacity:1;fill-rule:evenodd;stroke:#000000;stroke-width:1;stroke-linecap:square;stroke-linejoin:miter;stroke-miterlimit:2;stroke-opacity:1"
     id="g140"
     stroke-miterlimit="2"
     transform="translate(-54.0142,-15)" />
  <g
     style="fill:#000000;fill-opacity:1;fill-rule:evenodd;stroke:#000000;stroke-width:1;stroke-linecap:square;stroke-linejoin:miter;stroke-miterlimit:2;stroke-opacity:1"
     id="g142"
     transform="translate(-46.0142,-7)"
     stroke-miterlimit="2" />
  <g
     style="fill:#000000;fill-opacity:1;fill-rule:evenodd;stroke:#000000;stroke-width:1;stroke-linecap:square;stroke-linejoin:miter;stroke-miterlimit:2;stroke-opacity:1"
     id="g144"
     stroke-miterlimit="2"
     transform="translate(-54.0142,-15)" />
  <g
     style="fill:#000000;fill-opacity:1;fill-rule:evenodd;stroke:#000000;stroke-width:1;stroke-linecap:square;stroke-linejoin:miter;stroke-miterlimit:2;stroke-opacity:1"
     id="g146"
     stroke-miterlimit="2"
     transform="translate(-54.0142,-15)" />
  <g
     style="fill:#000000;fill-opacity:1;fill-rule:evenodd;stroke:#000000;stroke-width:1;stroke-linecap:square;stroke-linejoin:miter;stroke-miterlimit:2;stroke-opacity:1"
     id="g148"
     stroke-miterlimit="2"
     transform="translate(-54.0142,-15)" />
  <g
     style="fill:#000000;fill-opacity:1;fill-rule:evenodd;stroke:#000000;stroke-width:1;stroke-linecap:square;stroke-linejoin:miter;stroke-miterlimit:2;stroke-opacity:1"
     id="g150"
     stroke-miterlimit="2"
     transform="translate(-54.0142,-15)" />
  <g
     style="fill:#000000;fill-opacity:1;fill-rule:evenodd;stroke:#000000;stroke-width:1;stroke-linecap:square;stroke-linejoin:miter;stroke-miterlimit:2;stroke-opacity:1"
     id="g152"
     stroke-miterlimit="2"
     transform="translate(-54.0142,-15)" />
  <g
     style="fill:#000000;fill-opacity:1;fill-rule:evenodd;stroke:#000000;stroke-width:1;stroke-linecap:square;stroke-linejoin:miter;stroke-miterlimit:2;stroke-opacity:1"
     id="g154"
     stroke-miterlimit="2"
     transform="translate(-54.0142,-15)" />
</svg>
